<svg xmlns="http://www.w3.org/2000/svg" viewBox="0 0 24 24" fill="currentColor"><path d="M6.18,7.59c1.3,-1.01 2.66,-1.65 3.74,-1.82c-0.69,0.59-1.12,1.46-1.12,2.43c0,0.92 0.39,1.75 1.01,2.33c-0.25,0.23-0.51,0.46-0.79,0.68c-2.26,1.77-4.73,2.39-5.51,1.39c-0.78,-1 0.42,-3.25 2.68,-5.01zM20.5,12.6c-0.78,1-3.25,0.38-5.51,-1.39c-0.28,-0.22-0.55,-0.45-0.79,-0.68c0.62,-0.58 1.01,-1.41 1.01,-2.33c0,-0.97-0.44,-1.85-1.12,-2.43c1.08,0.17 2.44,0.81 3.74,1.82c2.26,1.77 3.46,4.01 2.68,5.01zM9.7,8.2c0,-1.01 0.65,-1.87 1.56,-2.18c-0.51,-0.27-0.86,-0.8-0.86,-1.42c0,-0.39 0.14,-0.75 0.38,-1.03c-0.42,-0.65-0.87,-1.08-1.39,-1.38c-0.27,-0.15-0.52,-0.24-0.82,-0.3c-0.15,-0.03-0.29,-0.05-0.45,-0.05c-0.16,-0.01-0.54,0.01-0.54,0.01c0.02,0 0,0 0,0c-0.16,-0.02-0.3,-0.12-0.36,-0.27c-0.06,-0.15-0.04,-0.32 0.05,-0.45c0.1,-0.13 0.25,-0.19 0.41,-0.18c-0.01,0-0.02,0 0,0c0,0 0,0 0,0c0,0 0.68,-0.02 1.05,0.05c0.37,0.07 0.75,0.21 1.08,0.4c0.63,0.35 1.22,0.93 1.7,1.67c0.15,-0.05 0.31,-0.07 0.48,-0.07c0.17,0 0.33,0.03 0.48,0.07c0.49,-0.73 1.08,-1.32 1.7,-1.67c0.33,-0.18 0.71,-0.32 1.08,-0.4c0.37,-0.07 1.05,-0.05 1.05,-0.05c0,0 0,0 0,0c0.02,0 0.01,0 0,0c0.16,-0.02 0.32,0.05 0.41,0.18c0.1,0.13 0.12,0.3 0.05,0.45c-0.06,0.15-0.2,0.25-0.36,0.27c0,0-0.02,0 0,0c0,0-0.38,-0.02-0.54,-0.01c-0.16,0.01-0.3,0.02-0.45,0.05c-0.3,0.06-0.55,0.15-0.82,0.3c-0.53,0.29-0.97,0.72-1.39,1.38c0.23,0.28 0.38,0.64 0.38,1.03c0,0.62-0.35,1.15-0.86,1.42c0.91,0.31 1.56,1.17 1.56,2.18c0,1.27-1.03,2.3-2.3,2.3c-1.27,0-2.3,-1.03-2.3,-2.3zM8.6,15.6c0,-1.44 0.56,-2.72 1.42,-3.5l3.95,0c0.86,0.78 1.42,2.06 1.42,3.5c0,2.37-1.52,4.3-3.4,4.3c-1.88,0-3.4,-1.93-3.4,-4.3zM17.92,19.48l-0.62,-0.33c-0.32,-0.17-0.44,-0.56-0.27,-0.88c0.17,-0.32 0.56,-0.44 0.88,-0.27l0.62,0.33c0.32,0.17 0.44,0.56 0.27,0.88c-0.17,0.32-0.56,0.44-0.88,0.27zM14.04,22.38l-0.26,-0.65c-0.13,-0.33 0.03,-0.71 0.36,-0.85c0.33,-0.13 0.71,0.03 0.85,0.36l0.26,0.65c0.13,0.33-0.03,0.71-0.36,0.85c-0.33,0.13-0.71,-0.03-0.85,-0.36zM8.76,21.89l0.26,-0.65c0.13,-0.33 0.51,-0.49 0.85,-0.36c0.33,0.13 0.49,0.51 0.36,0.85l-0.26,0.65c-0.13,0.33-0.51,0.49-0.85,0.36c-0.33,-0.13-0.49,-0.51-0.36,-0.85zM5.47,18.34l0.62,-0.33c0.32,-0.17 0.71,-0.05 0.88,0.27c0.17,0.32 0.05,0.71-0.27,0.88l-0.62,0.33c-0.32,0.17-0.71,0.05-0.88,-0.27c-0.17,-0.32-0.05,-0.71 0.27,-0.88z"/></svg>
