<svg xmlns="http://www.w3.org/2000/svg" viewBox="0 0 24 24" fill="currentColor"><path d="M4.8,18c-1.33,0-2.4,-1.07-2.4,-2.4v-5c0,-1.33 1.07,-2.4 2.4,-2.4h14.4c1.33,0 2.4,1.07 2.4,2.4v5c0,1.33-1.07,2.4-2.4,2.4l-0.5,0v-3.6c-0.05,-0.5-0.3,-1.17-0.62,-1.48c-0.32,-0.32-0.98,-0.57-1.48,-0.62h-9.2c-0.5,0.05-1.17,0.3-1.48,0.62c-0.32,0.32-0.57,0.98-0.62,1.48l0,3.6zM14.8,16.7c-0.06,0.05-0.32,0.12-0.35,0.15c-0.03,0.03-0.15,0.29-0.15,0.35c0,0.06 0.12,0.32 0.15,0.35c0.03,0.03 0.29,0.1 0.35,0.15h-5.6c0.06,-0.05 0.32,-0.12 0.35,-0.15c0.03,-0.03 0.15,-0.29 0.15,-0.35c0,-0.06-0.12,-0.32-0.15,-0.35c-0.03,-0.03-0.29,-0.1-0.35,-0.15zM17.6,12.4c0.55,0 1,-0.45 1,-1c0,-0.55-0.45,-1-1,-1c-0.55,0-1,0.45-1,1c0,0.55 0.45,1 1,1zM6.4,3.4c0,-0.55 0.45,-1 1,-1h9.2c0.55,0 1,0.45 1,1v4.2l-11.2,0zM7.4,21.6c-0.55,0-1,-0.45-1,-1v-6.2c0,-0.55 0.45,-1 1,-1h9.2c0.55,0 1,0.45 1,1v6.2c0,0.55-0.45,1-1,1zM14.8,17.8c0.33,0 0.6,-0.27 0.6,-0.6c0,-0.33-0.27,-0.6-0.6,-0.6h-5.6c-0.33,0-0.6,0.27-0.6,0.6c0,0.33 0.27,0.6 0.6,0.6zM12.6,20.1c0.33,0 0.6,-0.27 0.6,-0.6c0,-0.33-0.27,-0.6-0.6,-0.6h-3.4c-0.33,0-0.6,0.27-0.6,0.6c0,0.33 0.27,0.6 0.6,0.6z"/></svg>
