<svg xmlns="http://www.w3.org/2000/svg" viewBox="0 0 24 24" fill="currentColor"><path d="M7.1,12c0,-2.71 2.19,-4.9 4.9,-4.9c2.71,0 4.9,2.19 4.9,4.9c0,2.71-2.19,4.9-4.9,4.9c-2.71,0-4.9,-2.19-4.9,-4.9zM11.83,1.26c0.11,-0.24 0.22,-0.24 0.33,0l0.82,1.77c0.11,0.24 0.07,0.46-0.12,0.64l-0.57,0.55c-0.19,0.18-0.39,0.18-0.58,0l-0.57,-0.55c-0.19,-0.18-0.23,-0.4-0.12,-0.64zM19.47,4.29c0.25,-0.09 0.33,-0.01 0.24,0.24l-0.68,1.83c-0.09,0.25-0.27,0.37-0.54,0.37l-0.79,-0.02c-0.27,-0.01-0.4,-0.14-0.41,-0.41l-0.02,-0.79c-0.01,-0.27 0.12,-0.45 0.37,-0.54zM22.74,11.83c0.24,0.11 0.24,0.22 0,0.33l-1.77,0.82c-0.24,0.11-0.46,0.07-0.64,-0.12l-0.55,-0.57c-0.18,-0.19-0.18,-0.39 0,-0.58l0.55,-0.57c0.18,-0.19 0.4,-0.23 0.64,-0.12zM19.71,19.47c0.09,0.25 0.01,0.33-0.24,0.24l-1.83,-0.68c-0.25,-0.09-0.37,-0.27-0.37,-0.54l0.02,-0.79c0.01,-0.27 0.14,-0.4 0.41,-0.41l0.79,-0.02c0.27,-0.01 0.45,0.12 0.54,0.37zM12.17,22.74c-0.11,0.24-0.22,0.24-0.33,0l-0.82,-1.77c-0.11,-0.24-0.07,-0.46 0.12,-0.64l0.57,-0.55c0.19,-0.18 0.39,-0.18 0.58,0l0.57,0.55c0.19,0.18 0.23,0.4 0.12,0.64zM4.53,19.71c-0.25,0.09-0.33,0.01-0.24,-0.24l0.68,-1.83c0.09,-0.25 0.27,-0.37 0.54,-0.37l0.79,0.02c0.27,0.01 0.4,0.14 0.41,0.41l0.02,0.79c0.01,0.27-0.12,0.45-0.37,0.54zM1.26,12.17c-0.24,-0.11-0.24,-0.22 0,-0.33l1.77,-0.82c0.24,-0.11 0.46,-0.07 0.64,0.12l0.55,0.57c0.18,0.19 0.18,0.39 0,0.58l-0.55,0.57c-0.18,0.19-0.4,0.23-0.64,0.12zM4.29,4.53c-0.09,-0.25-0.01,-0.33 0.24,-0.24l1.83,0.68c0.25,0.09 0.37,0.27 0.37,0.54l-0.02,0.79c-0.01,0.27-0.14,0.4-0.41,0.41l-0.79,0.02c-0.27,0.01-0.45,-0.12-0.54,-0.37z"/></svg>
